<svg fill="none" height="96" viewBox="0 0 96 96" width="96" xmlns="http://www.w3.org/2000/svg"><g fill="#4e301b"><path d="m93.5203 20.8329-7.9682-3.4068c-4.5081-1.9266-9.5929-1.5205-13.8647.3273l3.4204-8.98984c.7466-1.99256.576-4.10193-.4851-5.64881-.9041-1.29675-2.3593-2.07056-3.9183-2.07056-1.1142 0-2.2017.39337-3.1454 1.12706l-12.9742 10.03875c-.0394.0394-.0917.066-.1311.1176h-14.9658c-.0394-.0516-.0917-.0782-.1311-.1176l-12.9608-10.03875c-.9566-.73387-2.0448-1.12706-3.1582-1.12706-1.5598 0-3.0143.77381-3.9184 2.07056-1.0618 1.54688-1.2324 3.65625-.4721 5.64881l3.0802 8.12494c-3.7093-1.0616-7.7718-1.0354-11.4675.5374l-7.96796 3.4069c-2.5685599 1.1004-3.262872 3.8266-1.55906 6.0935l5.30775 7.0768c3.26288 4.3512 8.40017 6.6447 13.37967 6.9722l2.0842 22.9468c-1.0618 1.2718-1.8221 2.7657-2.1889 4.3907l-.8649 3.8526-.2888 1.2454c-.629 2.7521-.1303 5.5828 1.4159 7.9809.773 1.2187 1.7955 2.2806 2.9876 3.1324-.0394.7466.0919 1.494.3934 2.1881l1.9265 4.4164c1.2317 2.8301 4.6787 3.8268 7.5086 3.8268h28.7657c2.818 0 6.2779-.9967 7.5094-3.8268l1.9266-4.4164c.3011-.6941.4329-1.4415.3933-2.176 1.1657-.8512 2.1882-1.913 2.9749-3.1447 1.5461-2.3981 2.0441-5.2288 1.428-7.968l-.288-1.2711-.8914-3.8396c-.3669-1.6249-1.1141-3.093-2.1624-4.364l2.0835-22.947c5.5699.2486 11.7032-2.0442 15.4253-6.9987l5.3071-7.0768c1.7042-2.2667 1.0101-4.9929-1.5457-6.0934zm-28.2548 68.7233c-.3798.852-2.0047 1.4681-3.9056 1.4681h-28.7655c-1.9001 0-3.525-.6161-3.9049-1.4681l-1.3111-2.9876c.9178.21 1.8742.3146 2.8443.3146h33.5095c.9701 0 1.9265-.1046 2.8308-.3017zm-34.6106-6.6053h-.432c-1.4158 0-2.7262-.3138-3.8792-.8642-.6555-.3022-1.2452-.6813-1.7696-1.1276-.5897-.498-1.1006-1.061-1.4938-1.6901l-.3668-4.0761-.21-2.2798.8519-3.722c.7601-3.3805 4.1283-5.805 8.0203-5.805h4.3376 22.5277 4.3249c3.9056 0 7.2473 2.4245 8.0203 5.805l.8518 3.722-.1963 2.2542-.3667 4.0758c-.0137.013-.0137.0259-.0266.0387-.3934.6161-.8914 1.1793-1.4809 1.6644-.5239.4594-1.1134.8383-1.7689 1.1405-1.14.5504-2.4512.8642-3.8662.8642h-.4457zm13.1841-39.0787v-28.6614h6.2644v28.6616c0 5.5959 1.6773 11.0469 4.8097 15.5824h-15.8709c3.1187-4.5357 4.7968-9.9867 4.7968-15.5826zm26.8654-38.8967c.773 0 1.2187 1.08844.7207 2.39888l-3.2499 8.53122c-2.3725-1.5598-5.0457-2.6208-7.8499-3.1582l9.6319-7.47021c.275-.20925.5244-.30169.7472-.30169zm-6.0938 31.9898s.0129 0 .0129.0136c.7208.3147 1.3234.8384 1.7297 1.5068.3538.5767.5638 1.2581.5638 1.9789v1.8607c0 2.0972-1.7038 3.8003-3.8002 3.8003h-1.5204c-2.1102 0-3.814-1.7031-3.814-3.8003v-1.8607c0-2.0972 1.7038-3.8003 3.814-3.8003h1.5204c.5239.0002 1.0346.1046 1.4938.301zm-28.4516 5.3602c0 2.0972-1.7031 3.8003-3.8003 3.8003h-1.5204c-2.0964 0-3.8003-1.7031-3.8003-3.8003v-1.8607c0-.1964.013-.3934.0524-.5897.275-1.8214 1.8478-3.2106 3.7479-3.2106h.8126.7078c2.0972 0 3.8003 1.7031 3.8003 3.8003zm-10.392-26.4199-3.25-8.53122c-.498-1.31044-.0523-2.39888.7208-2.39888.2229 0 .4851.09244.7466.30169l9.6454 7.47021c-2.8172.5374-5.4911 1.5984-7.8628 3.1582zm49.7465 12.0177c.0265-.3147.0402-.6291.0402-.9437 0-1.2711-.2365-2.5429-.7078-3.7221 1.559-.6161 3.866-1.0742 6.3423-.0259l3.1324 1.3362c1.6121.6941 2.0578 2.4245.9831 3.866l-2.0837 2.7656c-1.5596 2.0835-3.6431 2.8825-5.1115 3.1842-1.0747.2222-2.1752.2621-3.1848.1046zm-57.0855 0 .6027 6.6174c-.3799-.0259-.7602-.078-1.14-.1569-1.4674-.3017-3.538-1.1007-5.0978-3.1842l-2.0835-2.7656c-1.08842-1.4415-.6427-3.1719.9821-3.8661l3.1197-1.3361c1.6248-.695 3.1841-.7344 4.508-.498-.6161 1.3369-.9307 2.7784-.9307 4.246.0002.3144.0131.629.0395.9435z"/><path d="m31.9789 39.0233h-.7602c-1.0488 0-1.9001.8518-1.9001 1.9128v.9178c0 1.0611.8511 1.9002 1.9001 1.9002h.7602c1.0481 0 1.9001-.8389 1.9001-1.9002v-.9178c.0002-1.061-.8518-1.9128-1.9001-1.9128zm-1.3103 1.9651c0-.5238.432-.9429.9566-.9429h.3797c.2359 0 .4457.0788.6026.2228l-1.7424 1.7426c-.1311-.144-.1963-.3411-.1963-.5503v-.4722z"/><path d="m60.0761 40.9361v.9178c0 1.0611.8391 1.9002 1.9001 1.9002h.7602c1.0481 0 1.9001-.8389 1.9001-1.9002v-.9178c0-1.061-.8518-1.9128-1.9001-1.9128h-.7602c-1.061 0-1.9001.8518-1.9001 1.9128zm1.086.0523c0-.5238.4329-.9429.9574-.9429h.3799c.2356 0 .4456.0788.6031.2228l-1.7431 1.7426c-.1311-.144-.1971-.3411-.1971-.5503v-.4722z"/><path d="m40.89 72.1269-3.8792-1.4681-.1174-3.2372c-.0137-.3933-.3017-.7207-.6949-.7995l-.1046-.0129-.5108.0264c-.4327.013-.7996.3403-.852.7731l-.7207 6.8927c-.0529.4327.2227.8261.642.9307l5.8708 1.4682c.2621.0523.5374-.0267.7337-.1969.21-.1834.3154-.4322.3017-.7073l-.2486-2.9876c-.0139-.2887-.1707-.5383-.42-.6816z"/><path d="m58.3593 66.6358-.4978-.0264-.1181.0129c-.3926.0788-.6814.4061-.6943.7995l-.1054 3.2372-3.8919 1.4681c-.2487.1433-.3934.3927-.4193.6814l-.2357 2.9876c-.0266.2751.078.5239.288.7073.1963.1704.4714.2493.7337.1968l5.8708-1.4681c.42-.1046.6951-.498.6557-.9307l-.7337-6.8927c-.0525-.4326-.4192-.76-.852-.7729z"/></g></svg>